<?xml version="1.0" encoding="UTF-8"?>
<svg id="_Слой_1" data-name="Слой 1" xmlns="http://www.w3.org/2000/svg" viewBox="0 0 68.03 68.03">
  <defs>
    <style>
      .cls-1 {
        fill: #1d1d1b;
      }
    </style>
  </defs>
  <g>
    <path d="M63.69,21.65h-27.2c-1.77,0-3.2-1.43-3.2-3.2s1.43-3.2,3.2-3.2h27.2c1.77,0,3.2,1.43,3.2,3.2s-1.43,3.2-3.2,3.2Z"/>
    <path class="cls-1" d="M63.69,22.69h-27.2c-2.34,0-4.24-1.9-4.24-4.23s1.9-4.24,4.24-4.24h27.2c2.34,0,4.24,1.9,4.24,4.24s-1.9,4.23-4.24,4.23ZM36.49,16.29c-1.19,0-2.17.97-2.17,2.17s.97,2.16,2.17,2.16h27.2c1.19,0,2.17-.97,2.17-2.16s-.97-2.17-2.17-2.17h-27.2Z"/>
  </g>
  <g>
    <path d="M63.63,52.77h-27.2c-1.77,0-3.2-1.43-3.2-3.2s1.43-3.2,3.2-3.2h27.2c1.77,0,3.2,1.43,3.2,3.2s-1.43,3.2-3.2,3.2Z"/>
    <path class="cls-1" d="M63.63,53.81h-27.2c-2.34,0-4.24-1.9-4.24-4.24s1.9-4.23,4.24-4.23h27.2c2.34,0,4.24,1.9,4.24,4.23s-1.9,4.24-4.24,4.24ZM36.44,47.41c-1.19,0-2.17.97-2.17,2.16s.97,2.17,2.17,2.17h27.2c1.19,0,2.17-.97,2.17-2.17s-.97-2.16-2.17-2.16h-27.2Z"/>
  </g>
  <g>
    <path d="M6.53,65.44c-.21-1.18.14-2.28.9-3.07l8.24-8.63,3.01-3.52c.69-.81,1.09-1.82,1.19-2.88.19-1.82-1-3.24-2.78-3.45-2.15-.26-3.9.51-4.71,2.54-.59,1.47-2.3,2.09-3.72,1.67s-2.57-1.96-2.1-3.57c.88-3.03,3.35-5.23,6.35-6.11,5.87-1.74,12.42.86,13.25,7.13.33,2.5-.44,4.91-1.86,6.99l-3.16,3.78-5.52,5.79,9.09.03c1.41.22,2.4,1.33,2.42,2.83.06,1.4-.99,3.05-2.56,3.05l-15.29-.02c-1.35,0-2.54-1.32-2.76-2.58Z"/>
    <path d="M13.98,8.84c-.98.24-1.62.98-2.48,1.4-1.54.93-3.53.38-4.29-1.3-.64-1.41-.04-3.04,1.23-3.9l5.67-3.84c.9-.61,1.87-.93,2.99-.82,1.57.14,3.14,1.35,3.14,3.12l-.02,24.48c0,1.51-1.46,2.55-2.68,2.71-1.87.24-3.27-.86-3.57-2.67V8.84Z"/>
  </g>
</svg>